<mxfile host="app.diagrams.net" modified="2022-12-11T17:59:51.723Z" agent="5.0 (Windows NT 10.0; Win64; x64) AppleWebKit/537.36 (KHTML, like Gecko) Chrome/108.0.0.0 Safari/537.36" etag="5CoeBFsgYf3kxQpivwSJ" version="20.6.2" type="github">
  <diagram id="O2IFybclIg-IPo_noqSl" name="Page-1">
    <mxGraphModel dx="-2998482" dy="1671" grid="1" gridSize="10" guides="1" tooltips="1" connect="1" arrows="1" fold="1" page="1" pageScale="1" pageWidth="1000000" pageHeight="1000000" math="0" shadow="0">
      <root>
        <mxCell id="0" />
        <mxCell id="1" parent="0" />
        <mxCell id="81swSzOpc_lDFe5qlIIw-8" style="edgeStyle=orthogonalEdgeStyle;rounded=0;orthogonalLoop=1;jettySize=auto;html=1;exitX=0.5;exitY=1;exitDx=0;exitDy=0;entryX=0.5;entryY=0;entryDx=0;entryDy=0;fontSize=52;strokeWidth=2;" parent="1" source="81swSzOpc_lDFe5qlIIw-1" target="81swSzOpc_lDFe5qlIIw-6" edge="1">
          <mxGeometry relative="1" as="geometry" />
        </mxCell>
        <mxCell id="7ejZ9NOVftlZceVqFTJe-2" style="edgeStyle=orthogonalEdgeStyle;rounded=0;orthogonalLoop=1;jettySize=auto;html=1;exitX=0.5;exitY=1;exitDx=0;exitDy=0;entryX=0.5;entryY=0;entryDx=0;entryDy=0;" edge="1" parent="1" source="81swSzOpc_lDFe5qlIIw-1" target="81swSzOpc_lDFe5qlIIw-5">
          <mxGeometry relative="1" as="geometry" />
        </mxCell>
        <mxCell id="7ejZ9NOVftlZceVqFTJe-3" style="edgeStyle=orthogonalEdgeStyle;rounded=0;orthogonalLoop=1;jettySize=auto;html=1;exitX=0.5;exitY=1;exitDx=0;exitDy=0;" edge="1" parent="1" source="81swSzOpc_lDFe5qlIIw-1" target="81swSzOpc_lDFe5qlIIw-7">
          <mxGeometry relative="1" as="geometry" />
        </mxCell>
        <mxCell id="81swSzOpc_lDFe5qlIIw-1" value="&lt;span style=&quot;font-size: 52px;&quot;&gt;小说模块&lt;/span&gt;" style="rounded=0;whiteSpace=wrap;html=1;" parent="1" vertex="1">
          <mxGeometry x="3159320" y="350" width="760" height="160" as="geometry" />
        </mxCell>
        <mxCell id="81swSzOpc_lDFe5qlIIw-5" value="&lt;font style=&quot;font-size: 52px;&quot;&gt;管理员&lt;/font&gt;" style="rounded=0;whiteSpace=wrap;html=1;" parent="1" vertex="1">
          <mxGeometry x="3159525" y="610" width="350" height="160" as="geometry" />
        </mxCell>
        <mxCell id="7ejZ9NOVftlZceVqFTJe-7" style="edgeStyle=orthogonalEdgeStyle;rounded=0;orthogonalLoop=1;jettySize=auto;html=1;exitX=0.5;exitY=1;exitDx=0;exitDy=0;entryX=0.5;entryY=0;entryDx=0;entryDy=0;fontSize=52;" edge="1" parent="1" source="81swSzOpc_lDFe5qlIIw-6" target="7ejZ9NOVftlZceVqFTJe-4">
          <mxGeometry relative="1" as="geometry" />
        </mxCell>
        <mxCell id="7ejZ9NOVftlZceVqFTJe-8" style="edgeStyle=orthogonalEdgeStyle;rounded=0;orthogonalLoop=1;jettySize=auto;html=1;exitX=0.5;exitY=1;exitDx=0;exitDy=0;entryX=0.5;entryY=0;entryDx=0;entryDy=0;fontSize=52;" edge="1" parent="1" source="81swSzOpc_lDFe5qlIIw-6" target="7ejZ9NOVftlZceVqFTJe-5">
          <mxGeometry relative="1" as="geometry" />
        </mxCell>
        <mxCell id="7ejZ9NOVftlZceVqFTJe-9" style="edgeStyle=orthogonalEdgeStyle;rounded=0;orthogonalLoop=1;jettySize=auto;html=1;exitX=0.5;exitY=1;exitDx=0;exitDy=0;entryX=0.5;entryY=0;entryDx=0;entryDy=0;fontSize=52;" edge="1" parent="1" source="81swSzOpc_lDFe5qlIIw-6" target="7ejZ9NOVftlZceVqFTJe-6">
          <mxGeometry relative="1" as="geometry" />
        </mxCell>
        <mxCell id="81swSzOpc_lDFe5qlIIw-6" value="&lt;font style=&quot;font-size: 52px;&quot;&gt;作者&lt;/font&gt;" style="rounded=0;whiteSpace=wrap;html=1;" parent="1" vertex="1">
          <mxGeometry x="3158670" y="610" width="350" height="160" as="geometry" />
        </mxCell>
        <mxCell id="81swSzOpc_lDFe5qlIIw-7" value="&lt;font style=&quot;font-size: 52px;&quot;&gt;读者&lt;/font&gt;" style="rounded=0;whiteSpace=wrap;html=1;" parent="1" vertex="1">
          <mxGeometry x="3160200" y="610" width="350" height="160" as="geometry" />
        </mxCell>
        <mxCell id="7ejZ9NOVftlZceVqFTJe-4" value="&lt;font style=&quot;font-size: 52px;&quot;&gt;小&lt;br&gt;说&lt;br&gt;阅&lt;br&gt;读&lt;/font&gt;" style="rounded=0;whiteSpace=wrap;html=1;" vertex="1" parent="1">
          <mxGeometry x="3158545" y="880" width="120" height="340" as="geometry" />
        </mxCell>
        <mxCell id="7ejZ9NOVftlZceVqFTJe-5" value="&lt;font style=&quot;font-size: 52px;&quot;&gt;小&lt;br&gt;说&lt;br&gt;检&lt;br&gt;索&lt;br&gt;&lt;/font&gt;" style="rounded=0;whiteSpace=wrap;html=1;" vertex="1" parent="1">
          <mxGeometry x="3158785" y="880" width="120" height="340" as="geometry" />
        </mxCell>
        <mxCell id="7ejZ9NOVftlZceVqFTJe-6" value="&lt;font style=&quot;font-size: 52px;&quot;&gt;小&lt;br&gt;说&lt;br&gt;购&lt;br&gt;买&lt;br&gt;&lt;/font&gt;" style="rounded=0;whiteSpace=wrap;html=1;" vertex="1" parent="1">
          <mxGeometry x="3159025" y="880" width="120" height="340" as="geometry" />
        </mxCell>
        <mxCell id="7ejZ9NOVftlZceVqFTJe-10" value="&lt;font style=&quot;font-size: 52px;&quot;&gt;购买小说章节&lt;br&gt;&lt;/font&gt;" style="rounded=0;whiteSpace=wrap;html=1;" vertex="1" parent="1">
          <mxGeometry x="3158400" y="1310" width="120" height="340" as="geometry" />
        </mxCell>
      </root>
    </mxGraphModel>
  </diagram>
</mxfile>
